<?xml version="1.0" standalone="no"?>
<!DOCTYPE svg PUBLIC "-//W3C//DTD SVG 1.1//EN" "http://www.w3.org/Graphics/SVG/1.1/DTD/svg11.dtd" >
<svg xmlns="http://www.w3.org/2000/svg">
<metadata></metadata>
<defs>
<font id="super_mario_maker_extendedRg" horiz-adv-x="1330" >
<font-face units-per-em="2048" ascent="1536" descent="-512" />
<missing-glyph horiz-adv-x="562" />
<glyph horiz-adv-x="0" />
<glyph horiz-adv-x="682" />
<glyph unicode=" "  horiz-adv-x="562" />
<glyph unicode="&#x09;" horiz-adv-x="562" />
<glyph unicode="&#xa0;" horiz-adv-x="562" />
<glyph unicode="!" horiz-adv-x="562" d="M0 0v256h256v-256h-256zM0 384v1152h256v-1152h-256z" />
<glyph unicode="&#x22;" horiz-adv-x="946" d="M0 1152v384h256v-384l-128 -128zM384 1152v384h256v-384l-128 -128z" />
<glyph unicode="#" d="M0 384v256h128v256h-128v256h128v384h256v-384h256v384h256v-384h128v-256h-128v-256h128v-256h-128v-384h-256v384h-256v-384h-256v384h-128zM384 640h256v256h-256v-256z" />
<glyph unicode="$" d="M0 256v128h640l128 128l-128 128h-384l-256 256v256l256 256h128v128h256v-128h256l128 -128v-128h-640l-128 -128l128 -128h384l256 -256v-256l-256 -256h-128v-128h-256v128h-256z" />
<glyph unicode="%" horiz-adv-x="1458" d="M0 256v128l896 896h256v-128l-896 -896h-256zM0 1024v256h256v-256h-256zM896 256v256h256v-256h-256z" />
<glyph unicode="&#x26;" d="M0 384v256l128 128l-128 128v256l256 256h128v128h256v-128h128l256 -256v-128h-256l-128 128h-256l-128 -128l128 -128h256v-256h-256l-128 -128l128 -128h256l128 128h256v-128l-256 -256h-128v-128h-256v128h-128z" />
<glyph unicode="'" horiz-adv-x="562" d="M0 1024v512h256v-256z" />
<glyph unicode="(" horiz-adv-x="818" d="M0 256v1024l256 256h256v-128l-256 -256v-768l256 -256v-128h-256z" />
<glyph unicode=")" horiz-adv-x="818" d="M0 0v128l256 256v768l-256 256v128h256l256 -256v-1024l-256 -256h-256z" />
<glyph unicode="*" d="M0 768v128l128 128h256v-128l-128 -128h-256zM0 1408v128h256l128 -128v-128h-256zM640 896v128h256l128 -128v-128h-256zM640 1280v128l128 128h256v-128l-128 -128h-256z" />
<glyph unicode="+" horiz-adv-x="1074" d="M0 640v256h256v256h256v-256h256v-256h-256v-256h-256v256h-256z" />
<glyph unicode="," horiz-adv-x="562" d="M0 -256v512h256v-256z" />
<glyph unicode="-" horiz-adv-x="1074" d="M0 640v256h768v-256h-768z" />
<glyph unicode="." horiz-adv-x="562" d="M0 0v256h256v-256h-256z" />
<glyph unicode="/" horiz-adv-x="1458" d="M0 0l768 1536h320l-768 -1536h-320z" />
<glyph unicode="0" d="M0 256v1024l256 256h512l256 -256v-1024l-256 -256h-512zM256 384l128 -128h256l128 128v768l-128 128h-256l-128 -128v-768z" />
<glyph unicode="1" horiz-adv-x="946" d="M128 1280v256h512v-1536h-256v1280h-256z" />
<glyph unicode="2" d="M0 0v640l256 256h384l128 128v128l-128 128h-256l-128 -128h-256v128l256 256h512l256 -256v-384l-256 -256h-384l-128 -128v-256h768v-256h-1024z" />
<glyph unicode="3" d="M0 256v128h256l128 -128h256l128 128v128l-128 128h-256v256h256l128 128v128l-128 128h-256l-128 -128h-256v128l256 256h512l256 -256v-384l-128 -128l128 -128v-384l-256 -256h-512z" />
<glyph unicode="4" d="M0 256v640l640 640h256v-1024h128v-256h-128v-256h-256v256h-640zM256 512h384v640l-384 -384v-256z" />
<glyph unicode="5" horiz-adv-x="1202" d="M0 0v256h512l128 128v128l-128 128h-384l-128 128v768h896v-256h-640v-384h384l256 -256v-384l-256 -256h-640z" />
<glyph unicode="6" d="M0 256v1024l256 256h640v-256h-512l-128 -128v-256h512l256 -256v-384l-256 -256h-512zM256 384l128 -128h256l128 128v128l-128 128h-256l-128 -128v-128z" />
<glyph unicode="7" d="M0 1280v256h1024v-256l-640 -1280h-320l640 1280h-704z" />
<glyph unicode="8" d="M0 256v384l128 128l-128 128v384l256 256h512l256 -256v-384l-128 -128l128 -128v-384l-256 -256h-512zM256 384l128 -128h256l128 128v128l-128 128h-256l-128 -128v-128zM256 1024l128 -128h256l128 128v128l-128 128h-256l-128 -128v-128z" />
<glyph unicode="9" d="M0 256v128h256l128 -128h256l128 128v256h-512l-256 256v384l256 256h512l256 -256v-1024l-256 -256h-512zM256 1024l128 -128h256l128 128v128l-128 128h-256l-128 -128v-128z" />
<glyph unicode=":" horiz-adv-x="562" d="M0 256v256h256v-256h-256zM0 1024v256h256v-256h-256z" />
<glyph unicode=";" horiz-adv-x="562" d="M0 0v512h256v-256zM0 1024v256h256v-256h-256z" />
<glyph unicode="&#x3c;" horiz-adv-x="1202" d="M0 768l512 512h384l-512 -512l512 -512h-384z" />
<glyph unicode="=" horiz-adv-x="1074" d="M0 384v256h768v-256h-768zM0 896v256h768v-256h-768z" />
<glyph unicode="&#x3e;" horiz-adv-x="1202" d="M0 256l512 512l-512 512h384l512 -512l-512 -512h-384z" />
<glyph unicode="?" d="M0 1024v256l256 256h512l256 -256v-384l-256 -256h-128v-256h-256v512h256l128 128v128l-128 128h-256l-128 -128v-128h-256zM384 0v256h256v-256h-256z" />
<glyph unicode="@" horiz-adv-x="1586" d="M0 256v1024l256 256h768l256 -256v-640l-256 -256h-512l-128 128v192l128 128h256v128l-64 64h-128l-64 -64h-128v64l128 128h256l128 -128v-512l128 128v512l-128 128h-512l-128 -128v-768l128 -128h896l-256 -256h-768zM512 576l64 -64h128l64 64v64l-64 64h-128 l-64 -64v-64z" />
<glyph unicode="A" d="M0 0v1152l384 384h256l384 -384v-1152h-256v512h-512v-512h-256zM256 768h512v256l-256 256l-256 -256v-256z" />
<glyph unicode="B" d="M0 0v1536h768l256 -256v-384l-128 -128l128 -128v-384l-256 -256h-768zM256 256h384l128 128v128l-128 128h-384v-384zM256 896h384l128 128v128l-128 128h-384v-384z" />
<glyph unicode="C" d="M0 256v1024l256 256h512l256 -256v-128h-256l-128 128h-256l-128 -128v-768l128 -128h256l128 128h256v-128l-256 -256h-512z" />
<glyph unicode="D" d="M0 0v1536h768l256 -256v-1024l-256 -256h-768zM256 256h384l128 128v768l-128 128h-384v-1024z" />
<glyph unicode="E" horiz-adv-x="1202" d="M0 0v1536h896v-256h-640v-384h512v-256h-512v-384h640v-256h-896z" />
<glyph unicode="F" horiz-adv-x="1202" d="M0 0v1536h896v-256h-640v-384h512v-256h-512v-640h-256z" />
<glyph unicode="G" d="M0 256v1024l256 256h512l256 -256v-128h-256l-128 128h-256l-128 -128v-768l128 -128h256l128 128v256h-256v256h512v-640l-256 -256h-512z" />
<glyph unicode="H" d="M0 0v1536h256v-640h512v640h256v-1536h-256v640h-512v-640h-256z" />
<glyph unicode="I" horiz-adv-x="562" d="M0 0v1536h256v-1536h-256z" />
<glyph unicode="J" d="M0 256v384h256v-256l128 -128h256l128 128v1152h256v-1280l-256 -256h-512z" />
<glyph unicode="K" d="M0 0v1536h256v-512l512 512h256v-128l-512 -512h-2l-62 -64l576 -576v-256h-128l-640 640v-640h-256z" />
<glyph unicode="L" horiz-adv-x="1202" d="M0 0v1536h256v-1280h640v-256h-896z" />
<glyph unicode="M" horiz-adv-x="1586" d="M0 0v1536h256l384 -384l384 384h256v-1536h-256v1152l-384 -384l-384 384v-1152h-256z" />
<glyph unicode="N" d="M0 0v1536h256l512 -512v512h256v-1536h-256v640l-512 512v-1152h-256z" />
<glyph unicode="O" horiz-adv-x="1714" d="M0 384v768l384 384h640l384 -384v-768l-384 -384h-640zM256 512l256 -256h384l256 256v512l-256 256h-384l-256 -256v-512z" />
<glyph unicode="P" d="M0 0v1536h768l256 -256v-384l-256 -256h-512v-640h-256zM256 896h384l128 128v128l-128 128h-384v-384z" />
<glyph unicode="Q" horiz-adv-x="1842" d="M0 384v768l384 384h640l384 -384v-768h-2l-62 -64l192 -192v-128h-256l-128 128l-128 -128h-640zM256 512l256 -256h384l64 64l-192 192v128h256l128 -128v512l-256 256h-384l-256 -256v-512z" />
<glyph unicode="R" d="M0 0v1536h768l256 -256v-384l-128 -128l128 -128v-640h-256v512l-128 128h-384v-640h-256zM256 896h384l128 128v128l-128 128h-384v-384z" />
<glyph unicode="S" d="M0 256v128h256l128 -128h256l128 128v128l-128 128h-384l-256 256v384l256 256h512l256 -256v-128h-256l-128 128h-256l-128 -128v-128l128 -128h384l256 -256v-384l-256 -256h-512z" />
<glyph unicode="T" d="M0 1280v256h1024v-256h-384v-1280h-256v1280h-384z" />
<glyph unicode="U" d="M0 256v1280h256v-1152l128 -128h256l128 128v1152h256v-1280l-256 -256h-512z" />
<glyph unicode="V" d="M0 384v1152h256v-1024l256 -256l256 256v1024h256v-1152l-384 -384h-256z" />
<glyph unicode="W" horiz-adv-x="1586" d="M0 0v1536h256v-1152l384 384l384 -384v1152h256v-1536h-256l-384 384l-384 -384h-256z" />
<glyph unicode="X" d="M0 0v512l256 256l-256 256v512h256v-384l256 -256l256 256v384h256v-512l-256 -256l256 -256v-512h-256v384l-256 256l-256 -256v-384h-256z" />
<glyph unicode="Y" d="M0 896v640h256v-512l256 -256l256 256v512h256v-640l-384 -384v-512h-256v512z" />
<glyph unicode="Z" d="M0 0v512l768 768h-768v256h1024v-384l-768 -768v-128h768v-256h-1024z" />
<glyph unicode="[" horiz-adv-x="818" d="M0 0v1536h512v-256h-256v-1024h256v-256h-512z" />
<glyph unicode="\" horiz-adv-x="1458" d="M0 1536h320l768 -1536h-320z" />
<glyph unicode="]" horiz-adv-x="818" d="M0 0v256h256v1024h-256v256h512v-1536h-512z" />
<glyph unicode="^" d="M0 896v128l512 512l512 -512v-128h-256l-256 256l-256 -256h-256z" />
<glyph unicode="_" d="M0 0h1024v-256h-1024v256z" />
<glyph unicode="`" horiz-adv-x="818" d="M0 1280v256h128l384 -384v-128h-256z" />
<glyph unicode="a" d="M0 192v320l192 192h576v128l-64 64h-384l-64 -64h-256v128l192 192h640l192 -192v-960h-832zM256 320l64 -64h384l64 64v128h-448l-64 -64v-64z" />
<glyph unicode="b" d="M0 0v1536h256v-384h512l256 -256v-640l-256 -256h-768zM256 384l128 -128h256l128 128v384l-128 128h-256l-128 -128v-384z" />
<glyph unicode="c" d="M0 256v640l256 256h512l256 -256v-128h-256l-128 128h-256l-128 -128v-384l128 -128h256l128 128h256v-128l-256 -256h-512z" />
<glyph unicode="d" d="M0 256v640l256 256h512v384h256v-1536h-768zM256 384l128 -128h256l128 128v384l-128 128h-256l-128 -128v-384z" />
<glyph unicode="e" d="M0 192v768l192 192h640l192 -192v-384l-128 -128h-640v-128l64 -64h384l64 64h256v-128l-192 -192h-640zM256 704h512v128l-64 64h-384l-64 -64v-128z" />
<glyph unicode="f" horiz-adv-x="1202" d="M0 640v256h128v448l192 192h384l192 -192v-192h-256v64l-64 64h-128l-64 -64v-320h384v-256h-384v-640h-256v640h-128z" />
<glyph unicode="g" d="M0 -128h256l128 -128h256l128 128v128h-512l-256 256v640l256 256h768v-1408l-256 -256h-512l-256 256v128zM256 384l128 -128h256l128 128v384l-128 128h-256l-128 -128v-384z" />
<glyph unicode="h" d="M0 0v1536h256v-384h512l256 -256v-896h-256v768l-128 128h-256l-128 -128v-768h-256z" />
<glyph unicode="i" horiz-adv-x="562" d="M0 0v1152h256v-1152h-256zM0 1280v256h256v-256h-256z" />
<glyph unicode="j" horiz-adv-x="1074" d="M0 192v192h192l128 -128h128l64 64v832h256v-960l-192 -192h-384zM512 1280v256h256v-256h-256z" />
<glyph unicode="k" horiz-adv-x="1202" d="M0 0v1536h256v-768l384 384h256v-128l-448 -448l62 -64h2l384 -384v-128h-256l-384 384v-384h-256z" />
<glyph unicode="l" horiz-adv-x="818" d="M0 0v256h128v1024h-128v256h384v-1280h128v-256h-512z" />
<glyph unicode="m" horiz-adv-x="1586" d="M0 0v1152h576l64 -64l64 64h448l128 -128v-1024h-256v832l-64 64h-128l-64 -64v-832h-256v832l-64 64h-128l-64 -64v-832h-256z" />
<glyph unicode="n" d="M0 0v1152h768l256 -256v-896h-256v768l-128 128h-384v-896h-256z" />
<glyph unicode="o" d="M0 256v640l256 256h512l256 -256v-640l-256 -256h-512zM256 384l128 -128h256l128 128v384l-128 128h-256l-128 -128v-384z" />
<glyph unicode="p" d="M0 -384v1536h768l256 -256v-640l-256 -256h-512v-384h-256zM256 384l128 -128h256l128 128v384l-128 128h-256l-128 -128v-384z" />
<glyph unicode="q" d="M0 256v640l256 256h768v-1536h-256v384h-512zM256 384l128 -128h256l128 128v384l-128 128h-256l-128 -128v-384z" />
<glyph unicode="r" horiz-adv-x="1202" d="M0 0v1152h704l192 -192v-192h-256v64l-64 64h-256l-64 -64v-832h-256z" />
<glyph unicode="s" horiz-adv-x="1202" d="M0 128v192h192l64 -64h320l64 64v64l-64 64h-384l-192 192v320l192 192h576l128 -128v-192h-192l-64 64h-320l-64 -64v-64l64 -64h384l192 -192v-320l-192 -192h-576z" />
<glyph unicode="t" horiz-adv-x="1074" d="M0 896v256h256v384h256v-384h256v-256h-256v-576l64 -64h192v-256h-320l-192 192v704h-256z" />
<glyph unicode="u" d="M0 256v896h256v-768l128 -128h256l128 128v768h256v-1152h-768z" />
<glyph unicode="v" d="M0 384v768h256v-640l256 -256l256 256v640h256v-768l-384 -384h-256z" />
<glyph unicode="w" horiz-adv-x="1586" d="M0 128v1024h256v-832l64 -64h128l64 64v832h256v-832l64 -64h128l64 64v832h256v-1152h-576l-64 64l-64 -64h-448z" />
<glyph unicode="x" d="M0 0v256l256 256l64 64l-320 320v256h256v-128l256 -256l256 256v128h256v-256l-256 -256h-2l-62 -64l320 -320v-256h-256v128l-256 256l-256 -256v-128h-256z" />
<glyph unicode="y" d="M0 -128h256l128 -128h256l128 128v128h-512l-256 256v896h256v-768l128 -128h256l128 128v768h256v-1408l-256 -256h-512l-256 256v128z" />
<glyph unicode="z" d="M0 0v256l640 640h-640v256h1024v-256l-640 -640h640v-256h-1024z" />
<glyph unicode="{" horiz-adv-x="946" d="M0 640v256l128 128v384l128 128h256l128 -128v-128h-256v-384l-128 -128l128 -128v-384h256v-128l-128 -128h-256l-128 128v384z" />
<glyph unicode="|" horiz-adv-x="562" d="M0 0v640h256v-640h-256zM0 896v640h256v-640h-256z" />
<glyph unicode="}" horiz-adv-x="946" d="M0 128v128h256v384l128 128l-128 128v384h-256v128l128 128h256l128 -128v-384l128 -128v-256l-128 -128v-384l-128 -128h-256z" />
<glyph unicode="~" d="M0 640v256l128 128h384l128 -128h128v128h256v-256l-128 -128h-384l-128 128h-128v-128h-256z" />
<glyph unicode="&#xa1;" horiz-adv-x="562" d="M0 0v1152h256v-1152h-256zM0 1280v256h256v-256h-256z" />
<glyph unicode="&#xa2;" d="M0 384v768l256 256h128v128h256v-128h128l256 -256v-128h-256l-128 128h-256l-128 -128v-512l128 -128h256l128 128h256v-128l-256 -256h-128v-128h-256v128h-128z" />
<glyph unicode="&#xa3;" horiz-adv-x="1202" d="M0 0v128l128 128v384h-128v256h128v384l256 256h256l128 -128v-128h-256l-128 -128v-256h128v-256h-128v-384h512v-256h-896z" />
<glyph unicode="&#xa4;" horiz-adv-x="1202" d="M128 384v128l64 64l-64 64v256l64 64l-64 64v128h128v-2l64 -62l64 64h256v-2l64 -62l64 64h128v-128h-2l-62 -64l64 -64v-256h-2l-62 -64l64 -64v-128h-128l-64 64l-64 -64h-256l-64 64l-64 -64h-128zM384 640h256v256h-256v-256z" />
<glyph unicode="&#xa5;" d="M0 1024v512h256v-384l256 -256l256 256v384h256v-512l-384 -384v-128h128v-256h-128v-256h-256v256h-128v256h128v128z" />
<glyph unicode="&#xa6;" horiz-adv-x="562" d="M0 0v640h256v-640h-256zM0 896v640h256v-640h-256z" />
<glyph unicode="&#xa7;" d="M0 256v128h256l128 -128h256l128 128l-128 128h-384l-256 256l128 128l-128 128v256l256 256h512l256 -256v-128h-256l-128 128h-256l-128 -128l128 -128h384l256 -256l-128 -128l128 -128v-256l-256 -256h-512zM384 704h256v128h-256v-128z" />
<glyph unicode="&#xa8;" horiz-adv-x="1202" d="M128 1280v256h256v-256h-256zM640 1280v256h256v-256h-256z" />
<glyph unicode="&#xa9;" horiz-adv-x="1714" d="M0 384v768l384 384h640l384 -384v-768l-384 -384h-640zM256 512l256 -256h384l256 256v512l-256 256h-384l-256 -256v-512zM512 576v384l64 64h256l64 -64v-128h-128v64h-128v-256h128v64h128v-128l-64 -64h-256z" />
<glyph unicode="&#xaa;" horiz-adv-x="690" d="M0 1088v192l64 64h192v64h-256v64l64 64h256l64 -64v-448h-320zM128 1152h128v64h-128v-64z" />
<glyph unicode="&#xab;" horiz-adv-x="1586" d="M0 768l512 512h128v-256l-256 -256l256 -256v-256h-128zM640 768l512 512h128v-256l-256 -256l256 -256v-256h-128z" />
<glyph unicode="&#xac;" d="M0 640v256h1024v-512h-256v256h-768z" />
<glyph unicode="&#xad;" horiz-adv-x="818" d="M128 640v256h384v-256h-384z" />
<glyph unicode="&#xae;" horiz-adv-x="1714" d="M0 384v768l384 384h640l384 -384v-768l-384 -384h-640zM256 512l256 -256h384l256 256v512l-256 256h-384l-256 -256v-512zM512 512v512h320l64 -64v-128l-64 -64l64 -64v-192h-128v128h-128v-128h-128zM640 768h128v128h-128v-128z" />
<glyph unicode="&#xaf;" d="M0 1280v256h1024v-256h-1024z" />
<glyph unicode="&#xb0;" horiz-adv-x="946" d="M0 1024v384l128 128h384l128 -128v-384l-128 -128h-384zM256 1152h128v128h-128v-128z" />
<glyph unicode="&#xb1;" horiz-adv-x="946" d="M128 320v256h512v-256h-512zM128 832v256h128v128h256v-128h128v-256h-128v-128h-256v128h-128z" />
<glyph unicode="&#xb2;" horiz-adv-x="690" d="M0 1024v192l128 128h64l64 64h-256v64l64 64h256l64 -64v-128l-128 -128h-64l-64 -64h256v-128h-384z" />
<glyph unicode="&#xb3;" horiz-adv-x="690" d="M0 1088v64h256v64h-128v128h128v64h-256v64l64 64h256l64 -64v-128l-64 -64l64 -64v-128l-64 -64h-256z" />
<glyph unicode="&#xb4;" horiz-adv-x="818" d="M0 1024v128l384 384h128v-256l-256 -256h-256z" />
<glyph unicode="&#xb5;" d="M0 -256v1280h256v-640l128 -128h256l128 128v640h256v-768l-256 -256h-512v-256h-256z" />
<glyph unicode="&#xb6;" horiz-adv-x="1458" d="M0 896v384l256 256h896v-1536h-256v1280h-128v-1280h-256v640h-256z" />
<glyph unicode="&#xb7;" horiz-adv-x="818" d="M128 640v256h256v-256h-256z" />
<glyph unicode="&#xb8;" horiz-adv-x="818" d="M128 0v128h256l128 -128v-128l-128 -128h-256l128 128l64 64l-64 64h-128z" />
<glyph unicode="&#xb9;" horiz-adv-x="562" d="M0 1408v128h256v-512h-128v384h-128z" />
<glyph unicode="&#xba;" horiz-adv-x="690" d="M0 1088v384l64 64h256l64 -64v-384l-64 -64h-256zM128 1152h128v256h-128v-256z" />
<glyph unicode="&#xbb;" horiz-adv-x="1586" d="M0 256v256l256 256l-256 256v256h128l512 -512l-512 -512h-128zM640 256v256l256 256l-256 256v256h128l512 -512l-512 -512h-128z" />
<glyph unicode="&#xbc;" horiz-adv-x="1458" d="M0 128v256l1024 1024h128v-256l-1024 -1024h-128zM0 1280v128h256v-512h-128v384h-128zM768 256v192l192 192h192v-512h-128v128h-256zM896 384h128v128z" />
<glyph unicode="&#xbd;" horiz-adv-x="1458" d="M0 128v256l1024 1024h128v-256l-1024 -1024h-128zM0 1280v128h256v-512h-128v384h-128zM768 128v192l128 128h64l64 64h-256v64l64 64h256l64 -64v-128l-128 -128h-64l-64 -64h256v-128h-384z" />
<glyph unicode="&#xbe;" horiz-adv-x="1458" d="M0 128v256l1024 1024h128v-256l-1024 -1024h-128zM0 960v64h256v64h-128v128h128v64h-256v64l64 64h256l64 -64v-128l-64 -64l64 -64v-128l-64 -64h-256zM768 256v192l192 192h192v-512h-128v128h-256zM896 384h128v128z" />
<glyph unicode="&#xbf;" d="M0 256v384l256 256h128v256h256v-512h-256l-128 -128v-128l128 -128h256l128 128v128h256v-256l-256 -256h-512zM384 1280v256h256v-256h-256z" />
<glyph unicode="&#xc0;" d="M0 0v1152l384 384h128l-256 128l128 64l384 -192l-86 -44l342 -340v-1152h-256v512h-512v-512h-256zM256 768h512v256l-256 256l-256 -256v-256z" />
<glyph unicode="&#xc1;" d="M0 0v1152l340 340l-84 44l384 192l128 -64l-256 -128h128l384 -384v-1152h-256v512h-512v-512h-256zM256 768h512v256l-256 256l-256 -256v-256z" />
<glyph unicode="&#xc2;" d="M0 0v1152l384 384h256l384 -384v-1152h-256v512h-512v-512h-256zM128 1536l384 192l384 -192l-128 -64l-256 128l-256 -128zM256 768h512v256l-256 256l-256 -256v-256z" />
<glyph unicode="&#xc3;" d="M0 0v1152l384 384h128l-128 64h-128l-128 -64l-128 64l256 128h128l256 -128h128l128 64l128 -64l-256 -128h-64l320 -320v-1152h-256v512h-512v-512h-256zM256 768h512v256l-256 256l-256 -256v-256z" />
<glyph unicode="&#xc4;" d="M0 0v1152l384 384h256l384 -384v-1152h-256v512h-512v-512h-256zM64 1600l128 128l128 -128l-128 -128zM256 768h512v256l-256 256l-256 -256v-256zM704 1600l128 128l128 -128l-128 -128z" />
<glyph unicode="&#xc5;" d="M0 0v1152l340 340l-84 44v128l128 64h256l128 -64v-128l-86 -44l342 -340v-1152h-256v512h-512v-512h-256zM256 768h512v256l-256 256l-256 -256v-256zM384 1600l64 -32h128l64 32l-64 32h-128z" />
<glyph unicode="&#xc6;" horiz-adv-x="1842" d="M0 0v1152l384 384h1152v-256h-640v-384h512v-256h-512v-384h640v-256h-896v512h-384v-512h-256zM256 768h384v512h-128l-256 -256v-256z" />
<glyph unicode="&#xc7;" d="M0 256v1024l256 256h512l256 -256v-128h-256l-128 128h-256l-128 -128v-768l128 -128h256l128 128h256v-128l-256 -256h-128v-128l-128 -128h-256l128 128l64 64l-64 64h-128z" />
<glyph unicode="&#xc8;" horiz-adv-x="1202" d="M0 0v1536h512l-256 128l128 64l384 -192h128v-256h-640v-384h512v-256h-512v-384h640v-256h-896z" />
<glyph unicode="&#xc9;" horiz-adv-x="1202" d="M0 0v1536h128l384 192l128 -64l-256 -128h512v-256h-640v-384h512v-256h-512v-384h640v-256h-896z" />
<glyph unicode="&#xca;" horiz-adv-x="1202" d="M0 0v1536h192l-64 32l320 160l320 -160l-64 -32h192v-256h-640v-384h512v-256h-512v-384h640v-256h-896zM320 1536h256l-128 64z" />
<glyph unicode="&#xcb;" horiz-adv-x="1202" d="M0 0v1536h128l-64 64l128 128l128 -128l-64 -64h384l-64 64l128 128l128 -128l-64 -64h128v-256h-640v-384h512v-256h-512v-384h640v-256h-896z" />
<glyph unicode="&#xcc;" horiz-adv-x="562" d="M-128 1664l128 64l384 -192l-128 -64v-1472h-256v1536h128z" />
<glyph unicode="&#xcd;" horiz-adv-x="562" d="M-128 1536l384 192l128 -64l-256 -128h128v-1536h-256v1472z" />
<glyph unicode="&#xce;" horiz-adv-x="562" d="M-128 1600l256 128l256 -128l-128 -64l-128 64l-128 -64zM0 0v1536h256v-1536h-256z" />
<glyph unicode="&#xcf;" horiz-adv-x="562" d="M-192 1600l128 128l128 -128l-128 -128zM0 0v1536h256v-1536h-256zM192 1600l128 128l128 -128l-128 -128z" />
<glyph unicode="&#xd0;" d="M0 0v1536h768l256 -256v-1024l-256 -256h-768zM256 256h384l128 128v768l-128 128h-384v-384h256v-256h-256v-384z" />
<glyph unicode="&#xd1;" d="M0 0v1536h256l512 -512v448h-128l-256 128h-128l-128 -64l-128 64l256 128h128l256 -128h128l128 64l128 -64l-128 -64h128v-1536h-256v640l-512 512v-1152h-256z" />
<glyph unicode="&#xd2;" horiz-adv-x="1714" d="M0 384v768l384 384h256l-256 128l128 64l384 -192h128l384 -384v-768l-384 -384h-640zM256 512l256 -256h384l256 256v512l-256 256h-384l-256 -256v-512z" />
<glyph unicode="&#xd3;" horiz-adv-x="1714" d="M0 384v768l384 384h128l384 192l128 -64l-256 -128h256l384 -384v-768l-384 -384h-640zM256 512l256 -256h384l256 256v512l-256 256h-384l-256 -256v-512z" />
<glyph unicode="&#xd4;" horiz-adv-x="1714" d="M0 384v768l384 384h64l-64 32l320 160l320 -160l-64 -32h64l384 -384v-768l-384 -384h-640zM256 512l256 -256h384l256 256v512l-256 256h-384l-256 -256v-512zM576 1536h256l-128 64z" />
<glyph unicode="&#xd5;" horiz-adv-x="1714" d="M0 384v768l384 384h320l-128 64h-192l-128 -64l-128 64l256 128h192l256 -128h192l128 64l128 -64l-214 -108l342 -340v-768l-384 -384h-640zM256 512l256 -256h384l256 256v512l-256 256h-384l-256 -256v-512z" />
<glyph unicode="&#xd6;" horiz-adv-x="1714" d="M0 384v768l384 384h640l384 -384v-768l-384 -384h-640zM64 1600l128 128l128 -128l-128 -128zM256 512l256 -256h384l256 256v512l-256 256h-384l-256 -256v-512zM1088 1600l128 128l128 -128l-128 -128z" />
<glyph unicode="&#xd7;" horiz-adv-x="1074" d="M0 576l192 192l-192 192l192 192l192 -192l192 192l192 -192l-192 -192l192 -192l-192 -192l-192 192l-192 -192z" />
<glyph unicode="&#xd8;" horiz-adv-x="1714" d="M0 0v256l64 64l-64 64v768l384 384h640l128 -128l128 128h128v-256h-2l-62 -64l64 -64v-768l-384 -384h-640l-128 128l-128 -128h-128zM256 512l640 640l64 64l-64 64h-384l-256 -256v-512zM448 320l64 -64h384l256 256v512l-640 -640h-2z" />
<glyph unicode="&#xd9;" d="M0 256v1280h256v-1152l128 -128h256l128 128v1152h256v-1280l-256 -256h-512zM256 1664l128 64l384 -192l-128 -64z" />
<glyph unicode="&#xda;" d="M0 256v1280h256v-1152l128 -128h256l128 128v1152h256v-1280l-256 -256h-512zM256 1536l384 192l128 -64l-384 -192z" />
<glyph unicode="&#xdb;" d="M0 256v1280h256v-1152l128 -128h256l128 128v1152h256v-1280l-256 -256h-512zM256 1600l256 128l256 -128l-128 -64l-128 64l-128 -64z" />
<glyph unicode="&#xdc;" d="M0 256v1280h128l-64 64l128 128l128 -128l-64 -64v-1152l128 -128h256l128 128v1152l-64 64l128 128l128 -128l-64 -64h128v-1280l-256 -256h-512z" />
<glyph unicode="&#xdd;" d="M0 896v640h256v-512l256 -256l256 256v512h256v-640l-384 -384v-512h-256v512zM256 1536l384 192l128 -64l-384 -192z" />
<glyph unicode="&#xde;" horiz-adv-x="1202" d="M0 0v1536h256v-256h384l256 -256v-512l-256 -256h-384v-256h-256zM256 512h256l128 128v256l-128 128h-256v-512z" />
<glyph unicode="&#xdf;" horiz-adv-x="1202" d="M0 0v1408l128 128h512l128 -128v-384l-128 -128h-2l-62 -64l320 -320v-384l-128 -128h-384v256h128l128 128l-256 256v384l128 128v128h-256v-1280h-256z" />
<glyph unicode="&#xe0;" d="M0 192v320l192 192h576v128l-64 64h-384l-64 -64h-256v128l192 192h640l192 -192v-960h-832zM256 320l64 -64h384l64 64v128h-448l-64 -64v-64zM256 1280l384 192l128 -64l-384 -192z" />
<glyph unicode="&#xe1;" d="M0 192v320l192 192h576v128l-64 64h-384l-64 -64h-256v128l192 192h640l192 -192v-960h-832zM256 320l64 -64h384l64 64v128h-448l-64 -64v-64zM256 1408l128 64l384 -192l-128 -64z" />
<glyph unicode="&#xe2;" d="M0 192v320l192 192h576v128l-64 64h-384l-64 -64h-256v128l192 192h640l192 -192v-960h-832zM128 1280l384 192l384 -192l-128 -64l-256 128l-256 -128zM256 320l64 -64h384l64 64v128h-448l-64 -64v-64z" />
<glyph unicode="&#xe3;" d="M0 192v320l192 192h576v128l-64 64h-384l-64 -64h-256v128l192 192h640l192 -192v-960h-832zM0 1344l256 128h128l256 -128h128l128 64l128 -64l-256 -128h-128l-256 128h-128l-128 -64zM256 320l64 -64h384l64 64v128h-448l-64 -64v-64z" />
<glyph unicode="&#xe4;" d="M0 192v320l192 192h576v128l-64 64h-384l-64 -64h-256v128l192 192h640l192 -192v-960h-832zM64 1344l128 128l128 -128l-128 -128zM256 320l64 -64h384l64 64v128h-448l-64 -64v-64zM704 1344l128 128l128 -128l-128 -128z" />
<glyph unicode="&#xe5;" d="M0 192v320l192 192h576v128l-64 64h-384l-64 -64h-256v128l192 192h640l192 -192v-960h-832zM256 320l64 -64h384l64 64v128h-448l-64 -64v-64zM256 1280v128l128 64h256l128 -64v-128l-128 -64h-256zM384 1344l64 -32h128l64 32l-64 32h-128z" />
<glyph unicode="&#xe6;" horiz-adv-x="1842" d="M0 192v320l192 192h448v128l-64 64h-256l-64 -64h-256v128l192 192h512l64 -64l64 64h512l192 -192v-384l-128 -128h-512v-128l64 -64h256l64 64h256v-128l-192 -192h-512l-64 64l-64 -64h-512zM256 320l64 -64h256l64 64v128h-320l-64 -64v-64zM896 704h384v128l-64 64 h-256l-64 -64v-128z" />
<glyph unicode="&#xe7;" d="M0 256v640l256 256h512l256 -256v-128h-256l-128 128h-256l-128 -128v-384l128 -128h256l128 128h256v-128l-256 -256h-128v-128l-128 -128h-256l128 128l64 64l-64 64h-128z" />
<glyph unicode="&#xe8;" d="M0 192v768l192 192h640l192 -192v-384l-128 -128h-640v-128l64 -64h384l64 64h256v-128l-192 -192h-640zM256 704h512v128l-64 64h-384l-64 -64v-128zM256 1408l128 64l384 -192l-128 -64z" />
<glyph unicode="&#xe9;" d="M0 192v768l192 192h640l192 -192v-384l-128 -128h-640v-128l64 -64h384l64 64h256v-128l-192 -192h-640zM256 704h512v128l-64 64h-384l-64 -64v-128zM256 1280l384 192l128 -64l-384 -192z" />
<glyph unicode="&#xea;" d="M0 192v768l192 192h640l192 -192v-384l-128 -128h-640v-128l64 -64h384l64 64h256v-128l-192 -192h-640zM128 1280l384 192l384 -192l-128 -64l-256 128l-256 -128zM256 704h512v128l-64 64h-384l-64 -64v-128z" />
<glyph unicode="&#xeb;" d="M0 192v768l192 192h640l192 -192v-384l-128 -128h-640v-128l64 -64h384l64 64h256v-128l-192 -192h-640zM64 1344l128 128l128 -128l-128 -128zM256 704h512v128l-64 64h-384l-64 -64v-128zM704 1344l128 128l128 -128l-128 -128z" />
<glyph unicode="&#xec;" horiz-adv-x="562" d="M-128 1408l128 64l384 -192l-128 -64zM0 0v1152h256v-1152h-256z" />
<glyph unicode="&#xed;" horiz-adv-x="562" d="M-128 1280l384 192l128 -64l-384 -192zM0 0v1152h256v-1152h-256z" />
<glyph unicode="&#xee;" horiz-adv-x="562" d="M-128 1344l256 128l256 -128l-128 -64l-128 64l-128 -64zM0 0v1152h256v-1152h-256z" />
<glyph unicode="&#xef;" horiz-adv-x="562" d="M-192 1344l128 128l128 -128l-128 -128zM0 0v1152h256v-1152h-256zM192 1344l128 128l128 -128l-128 -128z" />
<glyph unicode="&#xf0;" d="M0 256v640l256 256h512l-128 128l-64 64l-128 -128l-128 128l64 64h-384v256h640l64 64l128 -128l-64 -64l256 -256v-1024l-256 -256h-512zM256 384l128 -128h256l128 128v384l-128 128h-256l-128 -128v-384z" />
<glyph unicode="&#xf1;" d="M0 0v1152h768l256 -256v-896h-256v768l-128 128h-384v-896h-256zM0 1344l256 128h128l256 -128h128l128 64l128 -64l-256 -128h-128l-256 128h-128l-128 -64z" />
<glyph unicode="&#xf2;" d="M0 256v640l256 256h512l256 -256v-640l-256 -256h-512zM256 384l128 -128h256l128 128v384l-128 128h-256l-128 -128v-384zM256 1408l128 64l384 -192l-128 -64z" />
<glyph unicode="&#xf3;" d="M0 256v640l256 256h512l256 -256v-640l-256 -256h-512zM256 384l128 -128h256l128 128v384l-128 128h-256l-128 -128v-384zM256 1280l384 192l128 -64l-384 -192z" />
<glyph unicode="&#xf4;" d="M0 256v640l256 256h512l256 -256v-640l-256 -256h-512zM128 1280l384 192l384 -192l-128 -64l-256 128l-256 -128zM256 384l128 -128h256l128 128v384l-128 128h-256l-128 -128v-384z" />
<glyph unicode="&#xf5;" d="M0 256v640l256 256h512l256 -256v-640l-256 -256h-512zM0 1344l256 128h128l256 -128h128l128 64l128 -64l-256 -128h-128l-256 128h-128l-128 -64zM256 384l128 -128h256l128 128v384l-128 128h-256l-128 -128v-384z" />
<glyph unicode="&#xf6;" d="M0 256v640l256 256h512l256 -256v-640l-256 -256h-512zM64 1344l128 128l128 -128l-128 -128zM256 384l128 -128h256l128 128v384l-128 128h-256l-128 -128v-384zM704 1344l128 128l128 -128l-128 -128z" />
<glyph unicode="&#xf7;" horiz-adv-x="1074" d="M0 640v256h768v-256h-768zM256 320v256h256v-256h-256zM256 960v256h256v-256h-256z" />
<glyph unicode="&#xf8;" d="M0 0v896l256 256h512v-2l64 -62l64 64h128v-896l-256 -256h-512l-64 64l-64 -64h-128zM256 512l384 384h-256l-128 -128v-256zM384 256h256l128 128v256z" />
<glyph unicode="&#xf9;" d="M0 256v896h256v-768l128 -128h256l128 128v768h256v-1152h-768zM256 1408l128 64l384 -192l-128 -64z" />
<glyph unicode="&#xfa;" d="M0 256v896h256v-768l128 -128h256l128 128v768h256v-1152h-768zM256 1280l384 192l128 -64l-384 -192z" />
<glyph unicode="&#xfb;" d="M0 256v896h256v-768l128 -128h256l128 128v768h256v-1152h-768zM128 1280l384 192l384 -192l-128 -64l-256 128l-256 -128z" />
<glyph unicode="&#xfc;" d="M0 256v896h256v-768l128 -128h256l128 128v768h256v-1152h-768zM64 1344l128 128l128 -128l-128 -128zM704 1344l128 128l128 -128l-128 -128z" />
<glyph unicode="&#xfd;" d="M0 -128h256l128 -128h256l128 128v192l-64 -64h-448l-256 256v896h256v-768l128 -128h256l128 128v768h256v-1408l-256 -256h-512l-256 256v128zM256 1280l384 192l128 -64l-384 -192z" />
<glyph unicode="&#xfe;" horiz-adv-x="1202" d="M0 0v1536h256v-256h384l256 -256v-512l-256 -256h-384v-256h-256zM256 512h256l128 128v256l-128 128h-256v-512z" />
<glyph unicode="&#xff;" d="M0 -128h256l128 -128h256l128 128v192l-64 -64h-448l-256 256v896h256v-768l128 -128h256l128 128v768h256v-1408l-256 -256h-512l-256 256v128zM64 1344l128 128l128 -128l-128 -128zM704 1344l128 128l128 -128l-128 -128z" />
<glyph unicode="&#x178;" d="M0 896v640h128l-64 64l128 128l128 -128l-64 -64v-512l256 -256l256 256v512l-64 64l128 128l128 -128l-64 -64h128v-640l-384 -384v-512h-256v512z" />
<glyph unicode="&#x2000;" horiz-adv-x="864" />
<glyph unicode="&#x2001;" horiz-adv-x="1728" />
<glyph unicode="&#x2002;" horiz-adv-x="864" />
<glyph unicode="&#x2003;" horiz-adv-x="1728" />
<glyph unicode="&#x2004;" horiz-adv-x="576" />
<glyph unicode="&#x2005;" horiz-adv-x="432" />
<glyph unicode="&#x2006;" horiz-adv-x="288" />
<glyph unicode="&#x2007;" horiz-adv-x="288" />
<glyph unicode="&#x2008;" horiz-adv-x="216" />
<glyph unicode="&#x2009;" horiz-adv-x="345" />
<glyph unicode="&#x200a;" horiz-adv-x="96" />
<glyph unicode="&#x2010;" horiz-adv-x="1074" d="M0 640v256h768v-256h-768z" />
<glyph unicode="&#x2011;" horiz-adv-x="1074" d="M0 640v256h768v-256h-768z" />
<glyph unicode="&#x2012;" horiz-adv-x="1074" d="M0 640v256h768v-256h-768z" />
<glyph unicode="&#x2013;" d="M0 640v256h1024v-256h-1024z" />
<glyph unicode="&#x2014;" d="M0 640v256h1024v-256h-1024z" />
<glyph unicode="&#x2018;" horiz-adv-x="562" d="M0 1024v256l256 256v-512h-256z" />
<glyph unicode="&#x2019;" horiz-adv-x="562" d="M0 1024v512h256v-256z" />
<glyph unicode="&#x201a;" horiz-adv-x="562" d="M0 0v512h256v-256z" />
<glyph unicode="&#x201c;" horiz-adv-x="946" d="M0 1024v256l256 256v-512h-256zM384 1024v256l256 256v-512h-256z" />
<glyph unicode="&#x201d;" horiz-adv-x="946" d="M0 1024v512h256v-256zM384 1024v512h256v-256z" />
<glyph unicode="&#x201e;" horiz-adv-x="946" d="M0 0v512h256v-256zM384 0v512h256v-256z" />
<glyph unicode="&#x2022;" horiz-adv-x="946" d="M0 640v256l128 128h256l128 -128v-256l-128 -128h-256z" />
<glyph unicode="&#x2026;" horiz-adv-x="1586" d="M0 0v256h256v-256h-256zM512 0v256h256v-256h-256zM1024 0v256h256v-256h-256z" />
<glyph unicode="&#x202f;" horiz-adv-x="345" />
<glyph unicode="&#x2039;" horiz-adv-x="946" d="M0 768l512 512h128v-256l-256 -256l256 -256v-256h-128z" />
<glyph unicode="&#x203a;" horiz-adv-x="946" d="M0 256v256l256 256l-256 256v256h128l512 -512l-512 -512h-128z" />
<glyph unicode="&#x205f;" horiz-adv-x="432" />
<glyph unicode="&#x20ac;" d="M0 256v1024l256 256h512l256 -256v-128h-256l-128 128h-256l-128 -128h384v-256h-384v-128h384v-256h-384v-128l128 -128h256l128 128h256v-128l-256 -256h-512z" />
<glyph unicode="&#x2122;" horiz-adv-x="1586" d="M0 1408v128h512v-128h-192v-512h-128v512h-192zM640 896v640h128l128 -128v-2l64 -62l192 192h128v-640h-128v448l-192 -192l-192 192v-448h-128z" />
<glyph unicode="&#x25fc;" horiz-adv-x="1150" d="M0 0v1150h1150v-1150h-1150z" />
<glyph unicode="&#xfb01;" horiz-adv-x="1458" d="M0 640v256h128v448l192 192h448v-256h-320l-64 -64v-320h768v-896h-256v640h-512v-640h-256v640h-128zM896 1280v256h256v-256h-256z" />
<glyph unicode="&#xfb02;" horiz-adv-x="1586" d="M0 640v256h128v448l192 192h832v-1280h128v-256h-512v256h128v1024h-448l-64 -64v-320h384v-256h-384v-640h-256v640h-128z" />
<glyph unicode="&#xfb03;" horiz-adv-x="2354" d="M0 640v256h128v448l192 192h384l192 -192v-192h-256v64l-64 64h-128l-64 -64v-320h640v448l192 192h448v-256h-320l-64 -64v-320h768v-896h-256v640h-512v-640h-256v640h-640v-640h-256v640h-128zM1792 1280v256h256v-256h-256z" />
<glyph unicode="&#xfb04;" horiz-adv-x="2482" d="M0 640v256h128v448l192 192h384l192 -192v-192h-256v64l-64 64h-128l-64 -64v-320h640v448l192 192h832v-1280h128v-256h-512v256h128v1024h-448l-64 -64v-320h384v-256h-384v-640h-256v640h-640v-640h-256v640h-128z" />
</font>
</defs>
</svg>
